<?xml version='1.0' encoding='utf-8'?>
<svg xmlns:xlink="http://www.w3.org/1999/xlink" xmlns="http://www.w3.org/2000/svg" version="1.0" baseProfile="full" width="220" height="165">
  <title>VFPt_cylindrical_magnet_thumb</title>
  <desc>VFPt_cylindrical_magnet_thumb
created with VectorFieldPlot 1.1
http://commons.wikimedia.org/wiki/User:Geek3/VectorFieldPlot

about: http://commons.wikimedia.org/wiki/File:VFPt_cylindrical_magnet_thumb.svg
rights: GNU Free Documentation license,
        Creative Commons Attribution ShareAlike license
  </desc>
  <defs>
    <path id="arrow1" stroke="none" fill="#000000" transform="scale(0.0333333333333)" d="M 0.3,0 L -2.2,2.25 L 3.8,0 L -2.2,-2.25 L 0.3,0 Z"/>
  </defs>
  <rect id="background" x="0" y="0" width="220" height="165" fill="#ffffff"/>
  <g id="image" transform="translate(110.0,82.5) scale(30.0,-30.0)">
    <g id="fieldlines" fill="none" stroke="#000000" stroke-width="0.0333333333333" stroke-linejoin="round" stroke-linecap="round">
      <g id="fieldline1">
        <path d="M 0.0000,-0.4769 L 0.2726,-0.4779 L 0.4996,-0.4805 L 0.6790,-0.4842 L 0.8213,-0.4890 L 0.9374,-0.4947 L 1.0337,-0.5012 L 1.1150,-0.5085 L 1.1847,-0.5167 L 1.0194,-0.6591 L 0.9353,-0.7296 L 0.8648,-0.7855 L 0.8003,-0.8336 L 0.7392,-0.8761 L 0.6803,-0.9140 L 0.6229,-0.9481 L 0.5665,-0.9786 L 0.5110,-1.0058 L 0.4561,-1.0299 L 0.4016,-1.0511 L 0.3475,-1.0694 L 0.2936,-1.0850 L 0.2401,-1.0979 L 0.1865,-1.1082 L 0.1332,-1.1158 L 0.0799,-1.1209 L 0.0266,-1.1235 L -0.0266,-1.1235 L -0.0799,-1.1209 L -0.1332,-1.1158 L -0.1865,-1.1082 L -0.2400,-1.0979 L -0.2937,-1.0850 L -0.3475,-1.0694 L -0.4016,-1.0511 L -0.4561,-1.0299 L -0.5110,-1.0058 L -0.5665,-0.9786 L -0.6229,-0.9481 L -0.6803,-0.9140 L -0.7392,-0.8761 L -0.8003,-0.8336 L -0.8648,-0.7855 L -0.9353,-0.7296 L -1.0194,-0.6591 L -1.1847,-0.5167 L -1.1150,-0.5085 L -1.0337,-0.5012 L -0.9373,-0.4947 L -0.8218,-0.4890 L -0.6794,-0.4843 L -0.5000,-0.4805 L -0.2728,-0.4779 L 0.0000,-0.4769 Z"/>
        <g id="arrows1">
          <use xlink:href="#arrow1" transform="translate(0.0001,-1.1218) rotate(177.46) scale(1.4)"/>
        </g>
      </g>
      <g id="fieldline2">
        <path d="M 0.0000,-0.3974 L 0.3201,-0.3986 L 0.5701,-0.4017 L 0.7569,-0.4061 L 0.8998,-0.4117 L 1.0128,-0.4183 L 1.1047,-0.4259 L 1.1809,-0.4344 L 1.2451,-0.4439 L 1.2998,-0.4543 L 1.3465,-0.4655 L 1.3862,-0.4774 L 1.4199,-0.4899 L 1.4481,-0.5029 L 1.4725,-0.5167 L 1.4636,-0.5379 L 1.4523,-0.5732 L 1.4340,-0.6422 L 1.3892,-0.8216 L 1.3612,-0.9240 L 1.3339,-1.0153 L 1.3061,-1.0996 L 1.2774,-1.1790 L 1.2475,-1.2542 L 1.2165,-1.3257 L 1.1842,-1.3940 L 1.1506,-1.4593 L 1.1157,-1.5216 L 1.0795,-1.5812 L 1.0421,-1.6380 L 1.0035,-1.6922 L 0.9637,-1.7438 L 0.9228,-1.7929 L 0.8807,-1.8393 L 0.8376,-1.8833 L 0.7935,-1.9247 L 0.7485,-1.9635 L 0.7026,-1.9999 L 0.6559,-2.0337 L 0.6084,-2.0651 L 0.5602,-2.0939 L 0.5113,-2.1202 L 0.4619,-2.1440 L 0.4119,-2.1653 L 0.3615,-2.1841 L 0.3106,-2.2004 L 0.2594,-2.2142 L 0.2079,-2.2254 L 0.1562,-2.2342 L 0.1043,-2.2405 L 0.0523,-2.2442 L 0.0002,-2.2455 L -0.0519,-2.2442 L -0.1039,-2.2405 L -0.1558,-2.2343 L -0.2076,-2.2255 L -0.2590,-2.2143 L -0.3103,-2.2005 L -0.3611,-2.1842 L -0.4116,-2.1654 L -0.4615,-2.1442 L -0.5110,-2.1204 L -0.5599,-2.0941 L -0.6081,-2.0653 L -0.6556,-2.0340 L -0.7023,-2.0001 L -0.7482,-1.9638 L -0.7932,-1.9249 L -0.8373,-1.8836 L -0.8804,-1.8396 L -0.9225,-1.7932 L -0.9634,-1.7442 L -1.0032,-1.6926 L -1.0419,-1.6384 L -1.0793,-1.5816 L -1.1154,-1.5220 L -1.1503,-1.4597 L -1.1839,-1.3945 L -1.2163,-1.3262 L -1.2473,-1.2547 L -1.2771,-1.1795 L -1.3059,-1.1002 L -1.3337,-1.0159 L -1.3611,-0.9247 L -1.3892,-0.8216 L -1.4340,-0.6422 L -1.4523,-0.5732 L -1.4636,-0.5379 L -1.4725,-0.5167 L -1.4481,-0.5029 L -1.4199,-0.4899 L -1.3863,-0.4774 L -1.3466,-0.4655 L -1.2999,-0.4543 L -1.2451,-0.4439 L -1.1806,-0.4344 L -1.1044,-0.4258 L -1.0126,-0.4183 L -0.8995,-0.4117 L -0.7565,-0.4061 L -0.5698,-0.4017 L -0.3199,-0.3986 L 0.0000,-0.3974 Z"/>
        <g id="arrows2">
          <use xlink:href="#arrow1" transform="translate(1.0746,-1.5863) rotate(-124.02) scale(1.4)"/>
          <use xlink:href="#arrow1" transform="translate(-1.0746,-1.5863) rotate(121.06) scale(1.4)"/>
        </g>
      </g>
      <g id="fieldline3">
        <path d="M -1.5775,-2.7667 L -1.6070,-2.6939 L -1.6344,-2.6194 L -1.6597,-2.5431 L -1.6828,-2.4652 L -1.7038,-2.3856 L -1.7225,-2.3045 L -1.7389,-2.2219 L -1.7530,-2.1377 L -1.7648,-2.0522 L -1.7741,-1.9653 L -1.7810,-1.8771 L -1.7854,-1.7876 L -1.7873,-1.6969 L -1.7867,-1.6051 L -1.7834,-1.5123 L -1.7776,-1.4186 L -1.7692,-1.3241 L -1.7582,-1.2292 L -1.7445,-1.1343 L -1.7285,-1.0401 L -1.7101,-0.9478 L -1.6900,-0.8593 L -1.6688,-0.7770 L -1.6474,-0.7038 L -1.6270,-0.6422 L -1.6081,-0.5924 L -1.5909,-0.5534 L -1.5752,-0.5233 L -1.5602,-0.4997 L -1.5451,-0.4802 L -1.5287,-0.4634 L -1.5101,-0.4479 L -1.4883,-0.4333 L -1.4626,-0.4193 L -1.4324,-0.4059 L -1.3970,-0.3932 L -1.3557,-0.3813 L -1.3075,-0.3702 L -1.2509,-0.3601 L -1.1846,-0.3510 L -1.1051,-0.3428 L -1.0080,-0.3357 L -0.8861,-0.3296 L -0.7274,-0.3246 L -0.5119,-0.3208 L -0.2123,-0.3184 L 0.1552,-0.3182 L 0.4694,-0.3203 L 0.6968,-0.3239 L 0.8631,-0.3287 L 0.9900,-0.3347 L 1.0906,-0.3416 L 1.1727,-0.3496 L 1.2410,-0.3585 L 1.2987,-0.3685 L 1.3482,-0.3794 L 1.3906,-0.3912 L 1.4269,-0.4037 L 1.4580,-0.4170 L 1.4844,-0.4309 L 1.5068,-0.4454 L 1.5258,-0.4607 L 1.5425,-0.4773 L 1.5578,-0.4962 L 1.5728,-0.5191 L 1.5883,-0.5481 L 1.6053,-0.5855 L 1.6239,-0.6334 L 1.6441,-0.6931 L 1.6654,-0.7647 L 1.6867,-0.8457 L 1.7063,-0.9302 L 1.7244,-1.0185 L 1.7405,-1.1089 L 1.7543,-1.2002 L 1.7657,-1.2917 L 1.7748,-1.3829 L 1.7814,-1.4735 L 1.7855,-1.5633 L 1.7873,-1.6523 L 1.7867,-1.7402 L 1.7838,-1.8270 L 1.7785,-1.9127 L 1.7710,-1.9972 L 1.7612,-2.0805 L 1.7491,-2.1625 L 1.7349,-2.2432 L 1.7186,-2.3224 L 1.7001,-2.4003 L 1.6796,-2.4767 L 1.6570,-2.5516 L 1.6324,-2.6249 L 1.6059,-2.6966 L 1.5775,-2.7667"/>
        <g id="arrows3">
          <use xlink:href="#arrow1" transform="translate(-1.7520,-2.1377) rotate(97.67) scale(1.4)"/>
          <use xlink:href="#arrow1" transform="translate(-1.0904,-0.3424) rotate(3.96) scale(1.4)"/>
          <use xlink:href="#arrow1" transform="translate(1.0903,-0.3427) rotate(-5.82) scale(1.4)"/>
          <use xlink:href="#arrow1" transform="translate(1.7520,-2.1377) rotate(-99.68) scale(1.4)"/>
        </g>
      </g>
      <g id="fieldline4">
        <path d="M -2.8463,-2.7667 L -2.8219,-2.6553 L -2.7950,-2.5439 L -2.7655,-2.4328 L -2.7334,-2.3218 L -2.6987,-2.2112 L -2.6615,-2.1009 L -2.6217,-1.9911 L -2.5795,-1.8819 L -2.5348,-1.7733 L -2.4876,-1.6655 L -2.4381,-1.5587 L -2.3864,-1.4530 L -2.3325,-1.3487 L -2.2766,-1.2461 L -2.2191,-1.1459 L -2.1604,-1.0486 L -2.1011,-0.9550 L -2.0420,-0.8665 L -1.9840,-0.7841 L -1.9283,-0.7091 L -1.8757,-0.6424 L -1.8269,-0.5844 L -1.7820,-0.5347 L -1.7407,-0.4926 L -1.7024,-0.4570 L -1.6665,-0.4269 L -1.6320,-0.4012 L -1.5981,-0.3790 L -1.5638,-0.3595 L -1.5282,-0.3422 L -1.4904,-0.3268 L -1.4493,-0.3128 L -1.4041,-0.3002 L -1.3532,-0.2889 L -1.2953,-0.2787 L -1.2280,-0.2697 L -1.1484,-0.2618 L -1.0513,-0.2550 L -0.9285,-0.2492 L -0.7662,-0.2445 L -0.5391,-0.2409 L -0.2075,-0.2388 L 0.2075,-0.2388 L 0.5391,-0.2409 L 0.7662,-0.2445 L 0.9285,-0.2492 L 1.0513,-0.2550 L 1.1484,-0.2618 L 1.2280,-0.2697 L 1.2953,-0.2787 L 1.3532,-0.2889 L 1.4041,-0.3002 L 1.4493,-0.3128 L 1.4904,-0.3268 L 1.5282,-0.3422 L 1.5638,-0.3595 L 1.5981,-0.3790 L 1.6320,-0.4012 L 1.6665,-0.4269 L 1.7024,-0.4570 L 1.7407,-0.4926 L 1.7820,-0.5347 L 1.8269,-0.5844 L 1.8757,-0.6424 L 1.9283,-0.7091 L 1.9840,-0.7841 L 2.0420,-0.8665 L 2.1011,-0.9550 L 2.1604,-1.0486 L 2.2191,-1.1459 L 2.2766,-1.2461 L 2.3325,-1.3487 L 2.3864,-1.4530 L 2.4381,-1.5587 L 2.4876,-1.6655 L 2.5348,-1.7733 L 2.5795,-1.8819 L 2.6217,-1.9911 L 2.6615,-2.1009 L 2.6987,-2.2112 L 2.7334,-2.3218 L 2.7655,-2.4328 L 2.7950,-2.5439 L 2.8219,-2.6553 L 2.8463,-2.7667"/>
        <g id="arrows4">
          <use xlink:href="#arrow1" transform="translate(-2.6494,-2.0682) rotate(69.72) scale(1.4)"/>
          <use xlink:href="#arrow1" transform="translate(-1.2097,-0.2687) rotate(5.12) scale(1.4)"/>
          <use xlink:href="#arrow1" transform="translate(1.2096,-0.2690) rotate(-7.69) scale(1.4)"/>
          <use xlink:href="#arrow1" transform="translate(2.6492,-2.0682) rotate(-70.84) scale(1.4)"/>
        </g>
      </g>
      <g id="fieldline5">
        <path d="M -3.6833,-1.8827 L -3.5730,-1.7647 L -3.4612,-1.6489 L -3.3481,-1.5354 L -3.2337,-1.4242 L -3.1184,-1.3156 L -3.0022,-1.2097 L -2.8855,-1.1068 L -2.7688,-1.0072 L -2.6528,-0.9116 L -2.5382,-0.8204 L -2.4263,-0.7345 L -2.3185,-0.6549 L -2.2162,-0.5825 L -2.1209,-0.5179 L -2.0334,-0.4616 L -1.9537,-0.4132 L -1.8814,-0.3720 L -1.8154,-0.3373 L -1.7545,-0.3080 L -1.6973,-0.2832 L -1.6424,-0.2621 L -1.5885,-0.2441 L -1.5341,-0.2286 L -1.4776,-0.2153 L -1.4173,-0.2037 L -1.3510,-0.1937 L -1.2757,-0.1851 L -1.1878,-0.1778 L -1.0801,-0.1717 L -0.9404,-0.1668 L -0.7460,-0.1629 L -0.4507,-0.1601 L 0.0000,-0.1590 L 0.4507,-0.1601 L 0.7460,-0.1629 L 0.9404,-0.1668 L 1.0801,-0.1717 L 1.1878,-0.1778 L 1.2757,-0.1851 L 1.3510,-0.1937 L 1.4173,-0.2037 L 1.4776,-0.2153 L 1.5341,-0.2286 L 1.5885,-0.2441 L 1.6424,-0.2621 L 1.6973,-0.2832 L 1.7545,-0.3080 L 1.8154,-0.3373 L 1.8814,-0.3720 L 1.9537,-0.4132 L 2.0334,-0.4616 L 2.1209,-0.5179 L 2.2162,-0.5825 L 2.3185,-0.6549 L 2.4263,-0.7345 L 2.5382,-0.8204 L 2.6528,-0.9116 L 2.7688,-1.0072 L 2.8855,-1.1068 L 3.0022,-1.2097 L 3.1184,-1.3156 L 3.2337,-1.4242 L 3.3481,-1.5354 L 3.4612,-1.6489 L 3.5730,-1.7647 L 3.6833,-1.8827"/>
        <g id="arrows5">
          <use xlink:href="#arrow1" transform="translate(-3.1825,-1.3762) rotate(43.02) scale(1.4)"/>
          <use xlink:href="#arrow1" transform="translate(-1.1872,-0.1786) rotate(3.33) scale(1.4)"/>
          <use xlink:href="#arrow1" transform="translate(1.1871,-0.1787) rotate(-4.90) scale(1.4)"/>
          <use xlink:href="#arrow1" transform="translate(3.1825,-1.3762) rotate(-43.62) scale(1.4)"/>
        </g>
      </g>
      <g id="fieldline6">
        <path d="M -3.6833,-0.7747 L -3.4638,-0.6897 L -3.2476,-0.6087 L -3.0362,-0.5322 L -2.8316,-0.4608 L -2.6366,-0.3953 L -2.4547,-0.3369 L -2.2893,-0.2862 L -2.1423,-0.2437 L -2.0134,-0.2090 L -1.9005,-0.1809 L -1.7999,-0.1585 L -1.7082,-0.1405 L -1.6216,-0.1260 L -1.5363,-0.1143 L -1.4483,-0.1049 L -1.3522,-0.0973 L -1.2411,-0.0913 L -1.1007,-0.0866 L -0.9034,-0.0830 L -0.5804,-0.0805 L -0.0000,-0.0795 L 0.5804,-0.0805 L 0.9034,-0.0830 L 1.1007,-0.0866 L 1.2411,-0.0913 L 1.3522,-0.0973 L 1.4483,-0.1049 L 1.5363,-0.1143 L 1.6216,-0.1260 L 1.7082,-0.1405 L 1.7999,-0.1585 L 1.9005,-0.1809 L 2.0134,-0.2090 L 2.1423,-0.2437 L 2.2893,-0.2862 L 2.4547,-0.3369 L 2.6366,-0.3953 L 2.8316,-0.4608 L 3.0362,-0.5322 L 3.2476,-0.6087 L 3.4638,-0.6897 L 3.6833,-0.7747"/>
        <g id="arrows6">
          <use xlink:href="#arrow1" transform="translate(-2.8633,-0.4721) rotate(18.83) scale(1.4)"/>
          <use xlink:href="#arrow1" transform="translate(-0.0000,-0.0796) rotate(-0.06) scale(1.4)"/>
          <use xlink:href="#arrow1" transform="translate(2.8633,-0.4719) rotate(-19.24) scale(1.4)"/>
        </g>
      </g>
      <g id="fieldline7">
        <path d="M -3.6833,0.0000 L 3.6833,0.0000"/>
        <g id="arrows7">
          <use xlink:href="#arrow1" transform="translate(-2.8333,0.0000) rotate(-0.00) scale(1.4)"/>
          <use xlink:href="#arrow1" transform="translate(-0.0000,0.0000) rotate(-0.00) scale(1.4)"/>
          <use xlink:href="#arrow1" transform="translate(2.8333,0.0000) rotate(-0.00) scale(1.4)"/>
        </g>
      </g>
      <g id="fieldline8">
        <path d="M -3.6833,0.7747 L -3.4638,0.6897 L -3.2476,0.6087 L -3.0362,0.5322 L -2.8316,0.4608 L -2.6366,0.3953 L -2.4547,0.3369 L -2.2893,0.2862 L -2.1423,0.2437 L -2.0134,0.2090 L -1.9005,0.1809 L -1.7999,0.1585 L -1.7082,0.1405 L -1.6216,0.1260 L -1.5363,0.1143 L -1.4483,0.1049 L -1.3522,0.0973 L -1.2411,0.0913 L -1.1007,0.0866 L -0.9034,0.0830 L -0.5804,0.0805 L 0.0000,0.0795 L 0.5804,0.0805 L 0.9034,0.0830 L 1.1007,0.0866 L 1.2411,0.0913 L 1.3522,0.0973 L 1.4483,0.1049 L 1.5363,0.1143 L 1.6216,0.1260 L 1.7082,0.1405 L 1.7999,0.1585 L 1.9005,0.1809 L 2.0134,0.2090 L 2.1423,0.2437 L 2.2893,0.2862 L 2.4547,0.3369 L 2.6366,0.3953 L 2.8316,0.4608 L 3.0362,0.5322 L 3.2476,0.6087 L 3.4638,0.6897 L 3.6833,0.7747"/>
        <g id="arrows8">
          <use xlink:href="#arrow1" transform="translate(-2.8633,0.4721) rotate(-18.83) scale(1.4)"/>
          <use xlink:href="#arrow1" transform="translate(-0.0000,0.0796) rotate(0.06) scale(1.4)"/>
          <use xlink:href="#arrow1" transform="translate(2.8633,0.4719) rotate(19.24) scale(1.4)"/>
        </g>
      </g>
      <g id="fieldline9">
        <path d="M -3.6833,1.8827 L -3.5730,1.7647 L -3.4612,1.6489 L -3.3481,1.5354 L -3.2337,1.4242 L -3.1184,1.3156 L -3.0022,1.2097 L -2.8855,1.1068 L -2.7688,1.0072 L -2.6528,0.9116 L -2.5382,0.8204 L -2.4263,0.7345 L -2.3185,0.6549 L -2.2162,0.5825 L -2.1209,0.5179 L -2.0334,0.4616 L -1.9537,0.4132 L -1.8814,0.3720 L -1.8154,0.3373 L -1.7545,0.3080 L -1.6973,0.2832 L -1.6424,0.2621 L -1.5885,0.2441 L -1.5341,0.2286 L -1.4776,0.2153 L -1.4173,0.2037 L -1.3510,0.1937 L -1.2757,0.1851 L -1.1878,0.1778 L -1.0801,0.1717 L -0.9404,0.1668 L -0.7460,0.1629 L -0.4507,0.1601 L -0.0000,0.1590 L 0.4507,0.1601 L 0.7460,0.1629 L 0.9404,0.1668 L 1.0801,0.1717 L 1.1878,0.1778 L 1.2757,0.1851 L 1.3510,0.1937 L 1.4173,0.2037 L 1.4776,0.2153 L 1.5341,0.2286 L 1.5885,0.2441 L 1.6424,0.2621 L 1.6973,0.2832 L 1.7545,0.3080 L 1.8154,0.3373 L 1.8814,0.3720 L 1.9537,0.4132 L 2.0334,0.4616 L 2.1209,0.5179 L 2.2162,0.5825 L 2.3185,0.6549 L 2.4263,0.7345 L 2.5382,0.8204 L 2.6528,0.9116 L 2.7688,1.0072 L 2.8855,1.1068 L 3.0022,1.2097 L 3.1184,1.3156 L 3.2337,1.4242 L 3.3481,1.5354 L 3.4612,1.6489 L 3.5730,1.7647 L 3.6833,1.8827"/>
        <g id="arrows9">
          <use xlink:href="#arrow1" transform="translate(-3.1825,1.3762) rotate(-43.02) scale(1.4)"/>
          <use xlink:href="#arrow1" transform="translate(-1.1872,0.1786) rotate(-3.33) scale(1.4)"/>
          <use xlink:href="#arrow1" transform="translate(1.1871,0.1787) rotate(4.90) scale(1.4)"/>
          <use xlink:href="#arrow1" transform="translate(3.1825,1.3762) rotate(43.62) scale(1.4)"/>
        </g>
      </g>
      <g id="fieldline10">
        <path d="M -2.8463,2.7667 L -2.8219,2.6553 L -2.7950,2.5439 L -2.7655,2.4328 L -2.7334,2.3218 L -2.6987,2.2112 L -2.6615,2.1009 L -2.6217,1.9911 L -2.5795,1.8819 L -2.5348,1.7733 L -2.4876,1.6655 L -2.4381,1.5587 L -2.3864,1.4530 L -2.3325,1.3487 L -2.2766,1.2461 L -2.2191,1.1459 L -2.1604,1.0486 L -2.1011,0.9550 L -2.0420,0.8665 L -1.9840,0.7841 L -1.9283,0.7091 L -1.8757,0.6424 L -1.8269,0.5844 L -1.7820,0.5347 L -1.7407,0.4926 L -1.7024,0.4570 L -1.6665,0.4269 L -1.6320,0.4012 L -1.5981,0.3790 L -1.5638,0.3595 L -1.5282,0.3422 L -1.4904,0.3268 L -1.4493,0.3128 L -1.4041,0.3002 L -1.3532,0.2889 L -1.2953,0.2787 L -1.2280,0.2697 L -1.1484,0.2618 L -1.0513,0.2550 L -0.9285,0.2492 L -0.7662,0.2445 L -0.5391,0.2409 L -0.2075,0.2388 L 0.2075,0.2388 L 0.5391,0.2409 L 0.7662,0.2445 L 0.9285,0.2492 L 1.0513,0.2550 L 1.1484,0.2618 L 1.2280,0.2697 L 1.2953,0.2787 L 1.3532,0.2889 L 1.4041,0.3002 L 1.4493,0.3128 L 1.4904,0.3268 L 1.5282,0.3422 L 1.5638,0.3595 L 1.5981,0.3790 L 1.6320,0.4012 L 1.6665,0.4269 L 1.7024,0.4570 L 1.7407,0.4926 L 1.7820,0.5347 L 1.8269,0.5844 L 1.8757,0.6424 L 1.9283,0.7091 L 1.9840,0.7841 L 2.0420,0.8665 L 2.1011,0.9550 L 2.1604,1.0486 L 2.2191,1.1459 L 2.2766,1.2461 L 2.3325,1.3487 L 2.3864,1.4530 L 2.4381,1.5587 L 2.4876,1.6655 L 2.5348,1.7733 L 2.5795,1.8819 L 2.6217,1.9911 L 2.6615,2.1009 L 2.6987,2.2112 L 2.7334,2.3218 L 2.7655,2.4328 L 2.7950,2.5439 L 2.8219,2.6553 L 2.8463,2.7667"/>
        <g id="arrows10">
          <use xlink:href="#arrow1" transform="translate(-2.6494,2.0682) rotate(-69.72) scale(1.4)"/>
          <use xlink:href="#arrow1" transform="translate(-1.2097,0.2687) rotate(-5.12) scale(1.4)"/>
          <use xlink:href="#arrow1" transform="translate(1.2096,0.2690) rotate(7.69) scale(1.4)"/>
          <use xlink:href="#arrow1" transform="translate(2.6492,2.0682) rotate(70.84) scale(1.4)"/>
        </g>
      </g>
      <g id="fieldline11">
        <path d="M -1.5775,2.7667 L -1.6070,2.6939 L -1.6344,2.6194 L -1.6597,2.5431 L -1.6828,2.4652 L -1.7038,2.3856 L -1.7225,2.3045 L -1.7389,2.2219 L -1.7530,2.1377 L -1.7648,2.0522 L -1.7741,1.9653 L -1.7810,1.8771 L -1.7854,1.7876 L -1.7873,1.6969 L -1.7867,1.6051 L -1.7834,1.5123 L -1.7776,1.4186 L -1.7692,1.3241 L -1.7582,1.2292 L -1.7445,1.1343 L -1.7285,1.0401 L -1.7101,0.9478 L -1.6900,0.8593 L -1.6688,0.7770 L -1.6474,0.7038 L -1.6270,0.6422 L -1.6081,0.5924 L -1.5909,0.5534 L -1.5752,0.5233 L -1.5602,0.4997 L -1.5451,0.4802 L -1.5287,0.4634 L -1.5101,0.4479 L -1.4883,0.4333 L -1.4626,0.4193 L -1.4324,0.4059 L -1.3970,0.3932 L -1.3557,0.3813 L -1.3075,0.3702 L -1.2509,0.3601 L -1.1846,0.3510 L -1.1051,0.3428 L -1.0080,0.3357 L -0.8861,0.3296 L -0.7274,0.3246 L -0.5119,0.3208 L -0.2123,0.3184 L 0.1552,0.3182 L 0.4694,0.3203 L 0.6968,0.3239 L 0.8631,0.3287 L 0.9900,0.3347 L 1.0906,0.3416 L 1.1727,0.3496 L 1.2410,0.3585 L 1.2987,0.3685 L 1.3482,0.3794 L 1.3906,0.3912 L 1.4269,0.4037 L 1.4580,0.4170 L 1.4844,0.4309 L 1.5068,0.4454 L 1.5258,0.4607 L 1.5425,0.4773 L 1.5578,0.4962 L 1.5728,0.5191 L 1.5883,0.5481 L 1.6053,0.5855 L 1.6239,0.6334 L 1.6441,0.6931 L 1.6654,0.7647 L 1.6867,0.8457 L 1.7063,0.9302 L 1.7244,1.0185 L 1.7405,1.1089 L 1.7543,1.2002 L 1.7657,1.2917 L 1.7748,1.3829 L 1.7814,1.4735 L 1.7855,1.5633 L 1.7873,1.6523 L 1.7867,1.7402 L 1.7838,1.8270 L 1.7785,1.9127 L 1.7710,1.9972 L 1.7612,2.0805 L 1.7491,2.1625 L 1.7349,2.2432 L 1.7186,2.3224 L 1.7001,2.4003 L 1.6796,2.4767 L 1.6570,2.5516 L 1.6324,2.6249 L 1.6059,2.6966 L 1.5775,2.7667"/>
        <g id="arrows11">
          <use xlink:href="#arrow1" transform="translate(-1.7520,2.1377) rotate(-97.67) scale(1.4)"/>
          <use xlink:href="#arrow1" transform="translate(-1.0904,0.3424) rotate(-3.96) scale(1.4)"/>
          <use xlink:href="#arrow1" transform="translate(1.0903,0.3427) rotate(5.82) scale(1.4)"/>
          <use xlink:href="#arrow1" transform="translate(1.7520,2.1377) rotate(99.68) scale(1.4)"/>
        </g>
      </g>
      <g id="fieldline12">
        <path d="M 0.0000,0.3974 L 0.3201,0.3986 L 0.5701,0.4017 L 0.7569,0.4061 L 0.8998,0.4117 L 1.0128,0.4183 L 1.1047,0.4259 L 1.1809,0.4344 L 1.2451,0.4439 L 1.2998,0.4543 L 1.3465,0.4655 L 1.3862,0.4774 L 1.4199,0.4899 L 1.4481,0.5029 L 1.4725,0.5167 L 1.4636,0.5379 L 1.4523,0.5732 L 1.4340,0.6422 L 1.3892,0.8216 L 1.3612,0.9240 L 1.3339,1.0153 L 1.3061,1.0996 L 1.2774,1.1790 L 1.2475,1.2542 L 1.2165,1.3257 L 1.1842,1.3940 L 1.1506,1.4593 L 1.1157,1.5216 L 1.0795,1.5812 L 1.0421,1.6380 L 1.0035,1.6922 L 0.9637,1.7438 L 0.9228,1.7929 L 0.8807,1.8393 L 0.8376,1.8833 L 0.7935,1.9247 L 0.7485,1.9635 L 0.7026,1.9999 L 0.6559,2.0337 L 0.6084,2.0651 L 0.5602,2.0939 L 0.5113,2.1202 L 0.4619,2.1440 L 0.4119,2.1653 L 0.3615,2.1841 L 0.3106,2.2004 L 0.2594,2.2142 L 0.2079,2.2254 L 0.1562,2.2342 L 0.1043,2.2405 L 0.0523,2.2442 L 0.0002,2.2455 L -0.0519,2.2442 L -0.1039,2.2405 L -0.1558,2.2343 L -0.2076,2.2255 L -0.2590,2.2143 L -0.3103,2.2005 L -0.3611,2.1842 L -0.4116,2.1654 L -0.4615,2.1442 L -0.5110,2.1204 L -0.5599,2.0941 L -0.6081,2.0653 L -0.6556,2.0340 L -0.7023,2.0001 L -0.7482,1.9638 L -0.7932,1.9249 L -0.8373,1.8836 L -0.8804,1.8396 L -0.9225,1.7932 L -0.9634,1.7442 L -1.0032,1.6926 L -1.0419,1.6384 L -1.0793,1.5816 L -1.1154,1.5220 L -1.1503,1.4597 L -1.1839,1.3945 L -1.2163,1.3262 L -1.2473,1.2547 L -1.2771,1.1795 L -1.3059,1.1002 L -1.3337,1.0159 L -1.3611,0.9247 L -1.3892,0.8216 L -1.4340,0.6422 L -1.4523,0.5732 L -1.4636,0.5379 L -1.4725,0.5167 L -1.4481,0.5029 L -1.4199,0.4899 L -1.3863,0.4774 L -1.3466,0.4655 L -1.2999,0.4543 L -1.2451,0.4439 L -1.1806,0.4344 L -1.1044,0.4258 L -1.0126,0.4183 L -0.8995,0.4117 L -0.7565,0.4061 L -0.5698,0.4017 L -0.3199,0.3986 L 0.0000,0.3974 Z"/>
        <g id="arrows12">
          <use xlink:href="#arrow1" transform="translate(1.0746,1.5863) rotate(124.02) scale(1.4)"/>
          <use xlink:href="#arrow1" transform="translate(-1.0746,1.5863) rotate(-121.06) scale(1.4)"/>
        </g>
      </g>
      <g id="fieldline13">
        <path d="M 0.0000,0.4769 L 0.2726,0.4779 L 0.4996,0.4805 L 0.6789,0.4842 L 0.8213,0.4890 L 0.9374,0.4947 L 1.0337,0.5012 L 1.1150,0.5085 L 1.1848,0.5167 L 1.0194,0.6591 L 0.9353,0.7296 L 0.8648,0.7855 L 0.8003,0.8336 L 0.7392,0.8761 L 0.6803,0.9140 L 0.6229,0.9481 L 0.5665,0.9786 L 0.5110,1.0058 L 0.4561,1.0299 L 0.4016,1.0511 L 0.3475,1.0694 L 0.2936,1.0850 L 0.2401,1.0979 L 0.1865,1.1082 L 0.1332,1.1158 L 0.0799,1.1209 L 0.0266,1.1235 L -0.0266,1.1235 L -0.0799,1.1209 L -0.1332,1.1158 L -0.1865,1.1082 L -0.2400,1.0979 L -0.2937,1.0850 L -0.3475,1.0694 L -0.4016,1.0511 L -0.4561,1.0299 L -0.5110,1.0058 L -0.5665,0.9786 L -0.6229,0.9481 L -0.6803,0.9140 L -0.7392,0.8761 L -0.8003,0.8336 L -0.8648,0.7855 L -0.9353,0.7296 L -1.0194,0.6591 L -1.1847,0.5167 L -1.1150,0.5085 L -1.0337,0.5012 L -0.9373,0.4947 L -0.8218,0.4890 L -0.6794,0.4843 L -0.5000,0.4805 L -0.2728,0.4779 L 0.0000,0.4769 Z"/>
        <g id="arrows13">
          <use xlink:href="#arrow1" transform="translate(0.0001,1.1218) rotate(-177.46) scale(1.4)"/>
        </g>
      </g>
    </g>
    <g id="symbols">
      <g id="magnet1" transform="translate(0.0,0.0) rotate(0.0)">
        <defs>
          <linearGradient id="magnetGrad1" x1="0" x2="0" y1="0.516666666667" y2="-0.516666666667" gradientUnits="userSpaceOnUse">
            <stop stop-color="#000000" offset="0" stop-opacity="0.125"/>
            <stop stop-color="#ffffff" offset="0.07" stop-opacity="0.125"/>
            <stop stop-color="#ffffff" offset="0.25" stop-opacity="0.5"/>
            <stop stop-color="#ffffff" offset="0.6" stop-opacity="0.2"/>
            <stop stop-color="#000000" offset="1" stop-opacity="0.33"/>
          </linearGradient>
        </defs>
        <rect x="-1.5" y="-0.516666666667" width="3.0" height="1.03333333333" style="fill:#00cc00; stroke:none"/>
        <rect x="0" y="-0.516666666667" width="1.5" height="1.03333333333" style="fill:#ff0000; stroke:none"/>
        <rect x="-1.5" y="-0.516666666667" width="3.0" height="1.03333333333" style="fill:url(#magnetGrad1); stroke-width:0.066666666667; stroke-linejoin:miter; stroke:#000000"/>
        <text text-anchor="middle" y="-0.516666666667" transform="translate(-0.975,-0.227333333333) scale(0.00516666666667,-0.00516666666667)" style="fill:#000000; stroke:none; font-size:120px; font-family:Bitstream Vera Sans">S</text>
        <text text-anchor="middle" y="-0.516666666667" transform="translate(0.975,-0.227333333333) scale(0.00516666666667,-0.00516666666667)" style="fill:#000000; stroke:none; font-size:120px; font-family:Bitstream Vera Sans">N</text>
      </g>
    </g>
  </g>
</svg>
